<?xml version="1.0" standalone="no"?><!DOCTYPE svg PUBLIC "-//W3C//DTD SVG 1.1//EN" "http://www.w3.org/Graphics/SVG/1.1/DTD/svg11.dtd"><svg t="1766659914560" class="icon" viewBox="0 0 1024 1024" version="1.1" xmlns="http://www.w3.org/2000/svg" p-id="2633" width="128" height="128" xmlns:xlink="http://www.w3.org/1999/xlink"><path d="M1024 228.992v518.432H0v-518.4A228.992 228.992 0 0 1 228.992 0h566.016A229.024 229.024 0 0 1 1024 228.992z" fill="#FFF8F7" p-id="2634"></path><path d="M419.008 480.512V242.688c0-10.112 8.384-18.272 18.72-18.272h205.824c10.368 0 18.72 8.16 18.72 18.24v219.52l-0.032 1.44 0.032 3.648v22.272c0 35.36-29.312 64-65.472 64h-18.72c-36.16 0-65.504-28.64-65.504-64 0-35.328 29.312-64 65.504-64h41.504c1.888 0 3.616 0.032 5.28 0.128v-91.52h-168.416v210.24c0 35.36-29.344 64-65.504 64h-18.72c-36.16 0-65.504-28.64-65.504-64 0-35.328 29.312-64 65.504-64h41.504c1.92 0 3.648 0.064 5.28 0.128zM1024 747.424v47.584A228.992 228.992 0 0 1 795.008 1024H228.992A228.992 228.992 0 0 1 0 795.008v-47.584h1024z" fill="#F04D58" p-id="2635"></path><path d="M320 802.688v137.088h20.928v-97.92h0.768l42.048 97.92h18.048l42.048-97.92h0.768v97.92h20.928v-137.088h-24.768l-47.616 109.824h-0.576l-47.808-109.824zM492.416 802.688v137.088h20.928V886.4h35.52c32.832 0 49.344-14.016 49.344-42.048 0-27.84-16.32-41.664-48.96-41.664h-56.832z m20.928 17.856h34.176c10.176 0 17.664 1.92 22.464 5.76 4.8 3.456 7.296 9.6 7.296 18.048 0 8.448-2.496 14.592-7.104 18.432-4.8 3.84-12.288 5.76-22.656 5.76h-34.176v-48zM663.104 800c-13.44 0-24.384 3.648-32.832 11.328-9.024 7.68-14.016 18.24-15.168 31.872h20.544c0.768-8.448 3.648-14.784 8.256-19.008 4.608-4.224 11.136-6.336 19.392-6.336 8.064 0 14.4 1.728 18.624 5.568 3.84 3.648 5.952 8.832 5.952 15.744 0 6.912-2.304 12.288-6.528 15.936-4.224 3.648-10.56 5.568-19.008 5.568h-9.792v15.744h9.984c9.024 0 15.936 1.92 20.544 5.76 4.992 3.84 7.488 9.792 7.488 17.856 0 6.912-2.496 12.48-7.104 17.088-5.376 4.992-12.48 7.68-21.312 7.68-8.064 0-14.592-2.304-19.584-6.912-5.76-4.992-8.64-12.096-9.024-21.312h-21.12c1.152 15.36 6.528 27.072 16.128 35.136 8.448 7.104 19.776 10.752 33.792 10.752 14.592 0 26.688-4.224 35.904-12.288 8.64-8.064 13.056-18.432 13.056-31.104a29.056 29.056 0 0 0-6.912-19.968 38.336 38.336 0 0 0-18.432-11.328c14.976-4.992 22.656-15.168 22.656-30.144 0-11.712-4.224-20.928-12.288-27.648-8.448-6.72-19.392-9.984-33.216-9.984z" fill="#FFFFFF" p-id="2636"></path></svg>