<?xml version="1.0" standalone="no"?><!DOCTYPE svg PUBLIC "-//W3C//DTD SVG 1.1//EN" "http://www.w3.org/Graphics/SVG/1.1/DTD/svg11.dtd"><svg t="1766659939017" class="icon" viewBox="0 0 1024 1024" version="1.1" xmlns="http://www.w3.org/2000/svg" p-id="3402" width="128" height="128" xmlns:xlink="http://www.w3.org/1999/xlink"><path d="M1024 228.992v518.432H0v-518.4A228.992 228.992 0 0 1 228.992 0h566.016A229.024 229.024 0 0 1 1024 228.992z" fill="#E1FCE5" p-id="3403"></path><path d="M1024 747.424v47.584A228.992 228.992 0 0 1 795.008 1024H228.992A228.992 228.992 0 0 1 0 795.008v-47.584h1024z" fill="#44B058" p-id="3404"></path><path d="M259.2 799.84v147.776h109.728v-19.232H281.76v-47.008h78.656v-19.232H281.76v-43.072h83.648v-19.232zM383.2 840.608l37.056 50.08-41.824 56.96h25.888l28.16-40.8 27.936 40.768h25.664l-41.6-56.928 37.056-50.08h-25.664l-23.392 33.92-23.616-33.92zM547.136 837.696c-16.544 0-29.376 5.6-38.72 16.768-8.672 10.368-13.024 23.616-13.024 39.744 0 16.576 4.352 29.824 13.248 40.16 9.12 10.784 21.76 16.16 38.08 16.16 13.664 0 24.864-3.52 33.12-10.336 8.32-7.04 13.888-17.824 16.384-32.096h-21.76c-2.048 16.128-11.168 24.416-27.52 24.416-9.536 0-16.576-3.52-21.312-10.144-5.184-6.816-7.68-16.32-7.68-28.352 0-12 2.496-21.536 7.872-28.16 5.184-6.816 12.224-10.144 21.312-10.144 7.456 0 13.44 1.664 18.016 5.184 4.576 3.296 7.456 8.704 8.896 15.936h21.76c-2.08-13.248-7.456-23.168-15.744-29.824-8.288-6.208-19.264-9.28-32.928-9.28zM660.384 837.696c-15.744 0-28.352 5.408-37.472 16.352-9.536 10.784-14.08 24-14.08 39.968 0 17.6 4.96 31.456 14.912 41.824 9.12 9.728 21.76 14.688 37.44 14.688 14.304 0 26.112-4.16 35.424-12.224 7.456-6.624 12.224-15.104 14.72-25.024h-21.952c-2.912 6.208-6.016 10.944-9.728 13.856-4.8 3.52-10.976 5.376-18.656 5.376-8.672 0-15.52-2.88-20.48-8.288-4.96-5.568-7.68-13.664-8.48-24h81.152c-0.224-19.04-4.576-33.92-12.864-44.704-9.088-12-22.56-17.824-39.936-17.824z m0.64 18.016c17.376 0 27.104 9.312 29.152 27.968h-57.728c1.216-9.12 4.32-15.968 8.896-20.704 4.96-4.992 11.392-7.264 19.648-7.264zM734.272 796.928v150.72h21.952v-150.72z" fill="#FFFFFF" p-id="3405"></path><path d="M640.064 563.552h-51.136l-57.152-103.008a618.88 618.88 0 0 1-19.456-38.88c-8.64 11.68-19.2 24.096-31.68 37.216l-98.24 104.672H320l168.064-177.92-99.648-174.08h51.872l45.376 79.712c12.032 20.992 18.88 33.216 20.672 36.736 4.16 7.84 8.704 17.216 13.664 28.096 11.84-16 30.176-37.056 55.008-63.136l77.312-81.408h61.44l-170.24 181.76 96.544 170.24z" fill="#44B058" p-id="3406"></path></svg>