<?xml version="1.0" standalone="no"?><!DOCTYPE svg PUBLIC "-//W3C//DTD SVG 1.1//EN" "http://www.w3.org/Graphics/SVG/1.1/DTD/svg11.dtd"><svg t="1766659905208" class="icon" viewBox="0 0 1024 1024" version="1.1" xmlns="http://www.w3.org/2000/svg" p-id="2172" width="128" height="128" xmlns:xlink="http://www.w3.org/1999/xlink"><path d="M136.896 0A137.024 137.024 0 0 0 0 136.896v750.208A137.024 137.024 0 0 0 136.896 1024h750.208A137.024 137.024 0 0 0 1024 887.104V136.896A137.024 137.024 0 0 0 887.104 0H136.896z" fill="#2CCE4A" p-id="2173"></path><path d="M819.2 505.6a64.32 64.32 0 0 0-76.8 0l-161.728 121.28-213.632-262.656-2.656-2.944a63.936 63.936 0 0 0-88.288-2.048L76.8 578.88V200.896C76.8 134.08 135.328 76.8 200.896 76.8h622.208c73.408 0 124.096 61.28 124.096 124.096V601.6l-128-96z" fill="#E1FCE5" p-id="2174"></path><path d="M748.8 211.2a64 64 0 1 0 0 128 64 64 0 0 0 0-128" fill="#2CCE4A" p-id="2175"></path></svg>