<?xml version="1.0" standalone="no"?><!DOCTYPE svg PUBLIC "-//W3C//DTD SVG 1.1//EN" "http://www.w3.org/Graphics/SVG/1.1/DTD/svg11.dtd"><svg t="1766659910242" class="icon" viewBox="0 0 1024 1024" version="1.1" xmlns="http://www.w3.org/2000/svg" p-id="2402" width="128" height="128" xmlns:xlink="http://www.w3.org/1999/xlink"><path d="M1024 228.992v518.432H0v-518.4A228.992 228.992 0 0 1 228.992 0h566.016A229.024 229.024 0 0 1 1024 228.992z" fill="#FFF8F7" p-id="2403"></path><path d="M1024 747.424v47.584A228.992 228.992 0 0 1 795.008 1024H228.992A228.992 228.992 0 0 1 0 795.008v-47.584h1024z" fill="#F04D58" p-id="2404"></path><path d="M329.664 956.064v-132.8h50.08c8.832 0 15.584 0.416 20.224 1.28 6.496 1.088 11.968 3.136 16.384 6.208 4.416 3.04 7.968 7.328 10.656 12.8 2.688 5.504 4.032 11.52 4.032 18.112 0 11.296-3.616 20.864-10.784 28.672-7.2 7.84-20.16 11.744-38.944 11.744H347.2v53.984h-17.568z m17.6-69.664h34.304c11.36 0 19.424-2.112 24.192-6.336 4.768-4.224 7.168-10.176 7.168-17.856a24 24 0 0 0-4.224-14.272 19.616 19.616 0 0 0-11.104-7.808c-2.944-0.8-8.416-1.184-16.384-1.184H347.2V886.4z m113.568 69.664v-132.8h45.76c10.304 0 18.176 0.64 23.616 1.92 7.616 1.728 14.08 4.896 19.488 9.504 7.008 5.92 12.256 13.472 15.68 22.688 3.52 9.184 5.248 19.712 5.248 31.552 0 10.08-1.184 19.04-3.52 26.816a65.184 65.184 0 0 1-9.088 19.328c-3.68 5.12-7.68 9.12-12.096 12.064a49.056 49.056 0 0 1-15.84 6.656 90.24 90.24 0 0 1-21.344 2.24h-47.904z m17.568-15.68h28.352c8.768 0 15.616-0.8 20.608-2.432a29.6 29.6 0 0 0 11.904-6.88c4.16-4.16 7.424-9.792 9.76-16.8 2.304-7.04 3.488-15.584 3.488-25.6 0-13.888-2.304-24.576-6.848-32.032-4.544-7.456-10.112-12.48-16.64-14.976-4.704-1.824-12.256-2.72-22.72-2.72h-27.872v101.44h-0.032z m124.736 15.68v-132.8h89.6v15.68h-72v41.12h62.304v15.68h-62.336v60.32h-17.6z" fill="#FFFFFF" p-id="2405"></path><path d="M496 341.632a432.32 432.32 0 0 1-28.608 69.28c-5.632 10.944-11.84 21.344-14.144 30.016l3.136-1.184a526.176 526.176 0 0 1 94.464-26.816 97.92 97.92 0 0 1-11.584-9.248c-16.96-14.72-31.68-36.064-43.296-62.048z m183.296 109.952c-4.8 5.472-13.312 8.64-25.76 8.64-21.504 0-56.576-6.624-84.864-21.344-48.64 5.504-84.864 12.16-113.984 21.664-1.44 0.576-3.136 1.152-5.12 2.016-35.04 61.152-61.088 88.576-84 88.576a25.024 25.024 0 0 1-12.448-3.168l-13.568-8.96-0.864-1.44a26.688 26.688 0 0 1-1.408-15.584c3.104-15.264 19.2-39.52 53.184-61.184 5.376-4.032 13.856-8.64 25.152-14.112 8.512-15.04 17.536-32.64 27.2-51.968 14.4-29.728 23.456-59.168 30.528-84.544v-0.32c-10.464-34.88-16.704-55.936-6.24-94.336 2.56-10.976 11.904-22.24 22.368-22.24h6.784c6.528 0 12.736 2.304 17.28 6.944 18.656 19.04 9.888 65.504 0.544 103.872-0.576 1.76-0.864 3.2-1.12 4.064 11.296 32.576 27.424 58.88 45.248 73.856 7.36 5.76 15.584 11.52 24.64 16.768a321.28 321.28 0 0 1 36.48-2.048c35.072 0 56.288 6.368 64.48 19.904a23.616 23.616 0 0 1 3.392 15.904 28.256 28.256 0 0 1-7.904 19.04z m-11.616-20.48c-2.816-2.88-14.144-10.112-53.76-10.112-1.952 0-3.936 0-6.496 2.88 20.672 9.248 40.736 14.72 53.76 14.72 1.984 0 3.68-0.288 5.376-0.576h1.12c1.44-0.576 2.272-0.864 2.56-3.744-0.576-0.864-1.12-2.016-2.56-3.2z m-259.392 42.144a114.752 114.752 0 0 0-13.568 8.96c-20.096 18.72-32.832 37.76-34.24 48.736 12.736-4.32 29.44-23.36 47.808-57.696z m85.44-199.424l1.408-1.184c1.984-9.216 2.816-17.28 4.512-23.648l0.864-4.608c2.816-16.448 2.24-24.8-2.56-31.744L493.76 211.2a36.16 36.16 0 0 0-1.984 3.456c-4.8 12.128-4.544 33.184 1.984 59.168z" fill="#F04D58" p-id="2406"></path></svg>