<?xml version="1.0" standalone="no"?><!DOCTYPE svg PUBLIC "-//W3C//DTD SVG 1.1//EN" "http://www.w3.org/Graphics/SVG/1.1/DTD/svg11.dtd"><svg t="1766659920408" class="icon" viewBox="0 0 1024 1024" version="1.1" xmlns="http://www.w3.org/2000/svg" p-id="2825" width="128" height="128" xmlns:xlink="http://www.w3.org/1999/xlink"><path d="M1024 228.992v518.432H0v-518.4A228.992 228.992 0 0 1 228.992 0h566.016A229.024 229.024 0 0 1 1024 228.992z" fill="#FFF8F7" p-id="2826"></path><path d="M413.184 192v384h58.624v-149.504h99.52c91.936 0 138.208-39.264 138.208-117.76C709.536 230.72 663.776 192 572.384 192h-159.2z m58.624 50.016h95.744c28.48 0 49.472 5.376 62.912 16.128 13.44 9.696 20.448 26.88 20.448 50.56 0 23.68-7.008 40.864-19.904 51.648-13.44 10.752-34.432 16.128-63.456 16.128h-95.744V242.016zM1024 747.424v47.584A228.992 228.992 0 0 1 795.008 1024H228.992A228.992 228.992 0 0 1 0 795.008v-47.584h1024z" fill="#E34221" p-id="2827"></path><path d="M352 800v137.088h20.928v-53.376h35.52c32.832 0 49.344-14.016 49.344-42.048 0-27.84-16.32-41.664-48.96-41.664H352z m20.928 17.856h34.176c10.176 0 17.664 1.92 22.464 5.76 4.8 3.456 7.296 9.6 7.296 18.048 0 8.448-2.496 14.592-7.104 18.432-4.8 3.84-12.288 5.76-22.656 5.76h-34.176v-48zM477.184 800v137.088h20.928v-53.376h35.52c32.832 0 49.344-14.016 49.344-42.048 0-27.84-16.32-41.664-48.96-41.664h-56.832z m20.928 17.856h34.176c10.176 0 17.664 1.92 22.464 5.76 4.8 3.456 7.296 9.6 7.296 18.048 0 8.448-2.496 14.592-7.104 18.432-4.8 3.84-12.288 5.76-22.656 5.76h-34.176v-48zM591.808 800v17.856h45.888v119.232h20.736v-119.232h45.696V800z" fill="#FFFFFF" p-id="2828"></path></svg>