<?xml version="1.0" standalone="no"?><!DOCTYPE svg PUBLIC "-//W3C//DTD SVG 1.1//EN" "http://www.w3.org/Graphics/SVG/1.1/DTD/svg11.dtd"><svg t="1766659928845" class="icon" viewBox="0 0 1024 1024" version="1.1" xmlns="http://www.w3.org/2000/svg" p-id="3017" width="128" height="128" xmlns:xlink="http://www.w3.org/1999/xlink"><path d="M1024 228.992v518.432H0v-518.4A228.992 228.992 0 0 1 228.992 0h566.016A229.024 229.024 0 0 1 1024 228.992z" fill="#F5EDFF" p-id="3018"></path><path d="M464.64 259.264a9.44 9.44 0 0 0-10.656-2.56 9.6 9.6 0 0 0-5.984 9.28v268.032a9.6 9.6 0 0 0 5.984 9.28c3.712 1.536 8 0.512 10.656-2.56l204.64-134.272a9.664 9.664 0 0 0 0-13.44l-204.64-133.76zM1024 747.424v47.584A228.992 228.992 0 0 1 795.008 1024H228.992A228.992 228.992 0 0 1 0 795.008v-47.584h1024z" fill="#722ED1" p-id="3019"></path><path d="M256 802.688l49.152 137.088h25.344l49.152-137.088h-22.656l-38.784 113.664h-0.576l-38.976-113.664zM406.528 800.768a13.312 13.312 0 0 0-9.984 3.84 12.736 12.736 0 0 0-4.032 9.792c0 3.84 1.344 7.296 4.032 9.984a14.08 14.08 0 0 0 9.984 3.84 14.4 14.4 0 0 0 9.984-3.84 13.632 13.632 0 0 0 4.224-9.984 12.736 12.736 0 0 0-4.032-9.792 13.76 13.76 0 0 0-10.176-3.84z m-10.176 39.744v99.264h20.352v-99.264h-20.352zM515.584 800v55.296c-8.064-11.712-18.24-17.472-30.336-17.472-14.208 0-25.536 5.184-33.6 15.552-7.68 9.6-11.328 21.696-11.328 36.288 0 15.168 3.84 27.648 11.52 37.248 8.256 10.368 19.776 15.552 34.368 15.552 13.44 0 23.808-4.992 30.72-14.592v11.904h19.008V800h-20.352z m-25.728 54.336c7.488 0 13.632 2.88 18.624 9.024 4.992 6.528 7.68 15.168 7.68 25.92v1.728c0 9.984-2.112 18.048-6.336 24.384a24 24 0 0 1-20.544 10.56c-9.984 0-17.472-3.648-22.08-10.752-4.032-6.144-5.952-14.592-5.952-25.536s2.112-19.392 6.336-25.152c4.8-6.912 12.288-10.176 22.272-10.176zM601.024 837.824c-14.592 0-26.304 4.992-34.752 15.168-8.832 9.984-13.056 22.272-13.056 37.056 0 16.32 4.608 29.184 13.824 38.784 8.448 9.024 20.16 13.632 34.752 13.632 13.248 0 24.192-3.84 32.832-11.328a44.8 44.8 0 0 0 13.632-23.232h-20.352c-2.688 5.76-5.568 10.176-9.024 12.864a28.384 28.384 0 0 1-17.28 4.992c-8.064 0-14.4-2.688-19.008-7.68-4.608-5.184-7.104-12.672-7.872-22.272h75.264c-0.192-17.664-4.224-31.488-11.904-41.472-8.448-11.136-20.928-16.512-37.056-16.512z m0.576 16.704c16.128 0 25.152 8.64 27.072 25.92h-53.568c1.152-8.448 4.032-14.784 8.256-19.2 4.608-4.608 10.56-6.72 18.24-6.72zM712.96 837.824c-14.976 0-27.072 4.992-36.096 14.976-9.024 9.792-13.44 22.272-13.44 37.44 0 14.976 4.416 27.456 13.248 37.056 9.216 9.984 21.312 15.168 36.288 15.168 14.976 0 27.072-5.184 36.288-15.168 8.832-9.6 13.248-22.08 13.248-37.056 0-15.168-4.608-27.648-13.44-37.44-9.024-9.984-21.12-14.976-36.096-14.976z m0 16.704a25.6 25.6 0 0 1 22.08 11.136c4.608 6.336 6.912 14.592 6.912 24.576 0 9.792-2.304 17.856-6.912 24.384a26.016 26.016 0 0 1-22.08 11.136 25.44 25.44 0 0 1-21.888-11.136c-4.608-6.336-6.72-14.4-6.72-24.384s2.112-18.24 6.72-24.576a25.024 25.024 0 0 1 21.888-11.136z" fill="#FFFFFF" p-id="3020"></path></svg>