<?xml version="1.0" standalone="no"?><!DOCTYPE svg PUBLIC "-//W3C//DTD SVG 1.1//EN" "http://www.w3.org/Graphics/SVG/1.1/DTD/svg11.dtd"><svg t="1766659935032" class="icon" viewBox="0 0 1024 1024" version="1.1" xmlns="http://www.w3.org/2000/svg" p-id="3209" width="128" height="128" xmlns:xlink="http://www.w3.org/1999/xlink"><path d="M1024 228.992v518.432H0v-518.4A228.992 228.992 0 0 1 228.992 0h566.016A229.024 229.024 0 0 1 1024 228.992z" fill="#EBF2FF" p-id="3210"></path><path d="M1024 747.424v47.584A228.992 228.992 0 0 1 795.008 1024H228.992A228.992 228.992 0 0 1 0 795.008v-47.584h1024z" fill="#327BFF" p-id="3211"></path><path d="M256 802.88l42.432 147.84h24.224l30.016-114.08h0.832l30.016 114.048h24l42.656-147.776h-25.472l-28.768 115.072h-0.832l-30.208-115.072h-23.616l-30.208 115.072h-0.832l-28.8-115.072zM512.896 840.768c-16.16 0-29.184 5.408-38.912 16.16-9.728 10.56-14.496 24-14.496 40.352 0 16.16 4.768 29.6 14.272 39.968 9.92 10.752 22.976 16.352 39.136 16.352 16.16 0 29.184-5.6 39.136-16.352 9.504-10.368 14.272-23.808 14.272-39.968 0-16.32-4.96-29.792-14.496-40.352-9.728-10.752-22.752-16.16-38.912-16.16z m0 18.016c10.144 0 18.016 3.936 23.808 12 4.96 6.848 7.456 15.744 7.456 26.496 0 10.56-2.496 19.264-7.456 26.304a28.064 28.064 0 0 1-23.808 12 27.456 27.456 0 0 1-23.584-12c-4.992-6.816-7.264-15.52-7.264-26.304 0-10.752 2.272-19.648 7.264-26.496a26.976 26.976 0 0 1 23.584-12zM636.896 840.768a26.144 26.144 0 0 0-17.376 6.016 31.904 31.904 0 0 0-10.368 13.056v-16.16h-21.952v107.008h21.952v-56.704c0-9.312 2.688-16.96 8.288-22.784a24.16 24.16 0 0 1 17.792-8.064c4.96 0 10.144 0.64 15.52 2.272v-21.952a31.296 31.296 0 0 0-13.856-2.688zM741.216 800v59.616c-8.672-12.64-19.648-18.848-32.704-18.848-15.296 0-27.52 5.6-36.224 16.768-8.288 10.368-12.224 23.392-12.224 39.136 0 16.352 4.16 29.824 12.448 40.16 8.896 11.2 21.312 16.768 37.056 16.768 14.464 0 25.664-5.376 33.12-15.744v12.832h20.48V800h-21.952z m-27.744 58.56c8.096 0 14.72 3.136 20.096 9.76 5.376 7.04 8.288 16.32 8.288 27.936v1.856c0 10.784-2.272 19.456-6.848 26.304a25.856 25.856 0 0 1-22.144 11.392c-10.752 0-18.848-3.936-23.808-11.616-4.352-6.624-6.4-15.712-6.4-27.52s2.24-20.896 6.816-27.104c5.184-7.456 13.248-10.976 24-10.976z" fill="#FFFFFF" p-id="3212"></path><path d="M658.144 542.336c16.96 18.56 47.84 6.56 47.84-18.56V231.328h-55.04v221.504l-109.376-119.808a27.52 27.52 0 0 0-40.64 0l-109.376 119.808V231.36h-55.04v292.448c0 25.12 30.912 37.12 47.84 18.56l136.896-149.952 136.896 149.952z" fill="#327BFF" p-id="3213"></path></svg>