<?xml version="1.0" standalone="no"?><!DOCTYPE svg PUBLIC "-//W3C//DTD SVG 1.1//EN" "http://www.w3.org/Graphics/SVG/1.1/DTD/svg11.dtd"><svg t="1766659894050" class="icon" viewBox="0 0 1024 1024" version="1.1" xmlns="http://www.w3.org/2000/svg" p-id="1981" width="128" height="128" xmlns:xlink="http://www.w3.org/1999/xlink"><path d="M435.424 649.088h147.36v72h-147.36z" fill="#FFA439" p-id="1982"></path><path d="M995.904 28.096A95.936 95.936 0 0 0 928.032 0h-308.544v73.088h-109.76v70.88h109.76v73.088h-109.76v70.88h109.76v73.088h-109.76v70.88h109.76v325.12c0 9.728-3.808 18.24-11.392 25.312-7.616 7.104-16 10.72-25.12 10.72h-147.552a33.12 33.12 0 0 1-25.12-10.72 35.2 35.2 0 0 1-10.272-25.28v-251.968h109.664V432h-109.664v-70.88h109.664V288.032h-109.664V217.152h109.664V144h-109.664V73.088h109.664V0H96A96 96 0 0 0 0 96v832a95.936 95.936 0 0 0 96 96h832a95.936 95.936 0 0 0 96-96V96c0-25.408-10.112-49.92-28.096-67.904z" fill="#F6B824" p-id="1983"></path></svg>