<?xml version="1.0" standalone="no"?><!DOCTYPE svg PUBLIC "-//W3C//DTD SVG 1.1//EN" "http://www.w3.org/Graphics/SVG/1.1/DTD/svg11.dtd"><svg t="1766482816722" class="icon" viewBox="0 0 2373 1024" version="1.1" xmlns="http://www.w3.org/2000/svg" p-id="1517" xmlns:xlink="http://www.w3.org/1999/xlink" width="463.4765625" height="200"><path d="M146.261333 0v263.307636A146.245818 146.245818 0 0 1 0 409.6V0h146.261333z m29.370182 409.6h146.261333V0H175.631515v409.6zM1082.290424 0v91.198061h-1.334303L845.156848 248.490667 1082.290424 409.6H832.760242l-114.191515-76.737939-114.998303 76.737939H351.247515l241.570909-161.109333-190.789818-128.031031h252.276364l65.070545 43.613091 109.288727-72.874666H351.247515V0h731.042909z m0 468.107636V614.4l-0.015515-0.03103V819.2l-6.361212-0.093091C965.787152 815.724606 877.53697 725.364364 877.53697 614.4H204.76897c0 110.964364-88.250182 201.324606-198.392243 204.706909L0 819.2V468.107636h1082.305939zM1433.320727 0v117.015273h292.522667V0h239.321212l-0.015515 117.015273 404.216242 0.015515v146.276848l-404.216242-0.015515v321.846303h404.216242v146.292364l-404.216242-0.015515v146.292363c0 78.739394-50.843152 142.925576-114.594909 146.168243l-5.05794 0.124121h-119.637333l-0.015515-292.584727-497.276121 0.015515v-146.292364h497.260606V263.292121H1433.320727v29.277091c0 126.913939-88.343273 230.244848-198.609454 233.95297l-6.144 0.108606V0H1433.289697zM634.724848 672.907636L1082.321455 1024H864.28703c-37.205333 0-73.355636-12.489697-102.632727-35.467636L541.15297 810.97697 320.667152 988.532364A166.322424 166.322424 0 0 1 218.018909 1024H0l447.534545-351.092364h187.205819z" fill="#4885F8" p-id="1518"></path></svg>